<?xml version="1.0" encoding="UTF-8"?>
<svg id="Layer_1" xmlns="http://www.w3.org/2000/svg" version="1.1" viewBox="0 0 2138 544">
  <!-- Generator: Adobe Illustrator 30.1.0, SVG Export Plug-In . SVG Version: 2.1.1 Build 136)  -->
  <defs>
    <style>
      .st0 {
        fill: #231f20;
        font-family: Gilroy-Bold, Gilroy-Bold;
        font-size: 546.05px;
        font-weight: 700;
      }

      .st1 {
        fill: #1bb680;
      }

      .st2 {
        fill: #1d293b;
      }
    </style>
  </defs>
  <path class="st2" d="M227.18,486c-60.38,0-110.24-19.9-149.59-59.71-39.36-39.81-59.03-88.9-59.03-147.29s19.68-107.95,59.03-147.57c39.35-39.61,89.21-59.43,149.59-59.43,36.3,0,69.83,8.44,100.59,25.31,30.75,16.87,54.74,39.72,71.93,68.53l-68.21,39.24c-9.94-17.82-24.07-31.75-42.41-41.8-18.34-10.04-38.98-15.07-61.9-15.07-38.97,0-70.41,12.14-94.28,36.4-23.88,24.27-35.82,55.73-35.82,94.4s11.94,69.57,35.82,93.83c23.88,24.27,55.31,36.4,94.28,36.4,22.93,0,43.65-5.02,62.19-15.07,18.53-10.04,32.57-23.79,42.13-41.23l68.21,39.24c-17.19,28.82-41.08,51.66-71.64,68.53-30.57,16.87-64.19,25.31-100.88,25.31Z"/>
  <path class="st2" d="M228.09,277.51l75.58,54.87c-17.56,24.18-45.69,38.53-75.58,38.53-51.23,0-93.39-42.16-93.39-93.39s42.16-93.39,93.39-93.39c29.96,0,58.15,14.41,75.7,38.69l-75.7,54.7Z"/>
  <rect class="st1" x="301.96" y="219.06" width="136.18" height="119.45" rx="59.73" ry="59.73"/>
  <text class="st0" transform="translate(456 414.87)"><tspan x="0" y="0">cliniqo</tspan></text>
</svg>